<?xml version="1.0" standalone="no"?>
<!DOCTYPE svg PUBLIC "-//W3C//DTD SVG 20010904//EN"
 "http://www.w3.org/TR/2001/REC-SVG-20010904/DTD/svg10.dtd">
<svg version="1.0" xmlns="http://www.w3.org/2000/svg"
 width="363.000000pt" height="363.000000pt" viewBox="0 0 363.000000 363.000000"
 preserveAspectRatio="xMidYMid meet">

<g transform="translate(0.000000,363.000000) scale(0.100000,-0.100000)"
fill="#000000" stroke="none">
<path d="M390 3609 c-130 -25 -270 -133 -327 -251 -59 -121 -91 -50 333 -759
288 -481 380 -627 385 -613 4 10 17 51 29 89 83 260 293 505 540 630 178 90
321 119 540 112 187 -6 277 -28 445 -111 230 -114 420 -315 515 -543 18 -43
33 -79 35 -81 3 -3 148 28 153 33 2 2 -153 225 -345 497 -383 543 -382 541
-316 580 35 21 1006 188 1091 188 29 0 59 -8 80 -20 l32 -20 -21 43 c-51 100
-191 200 -317 226 -65 13 -2782 14 -2852 0z"/>
<path d="M3051 3116 c-235 -43 -396 -77 -399 -84 -2 -6 135 -202 304 -434 169
-233 308 -424 309 -425 1 -2 81 16 178 39 l177 42 0 389 0 390 -56 73 c-56 72
-71 85 -102 83 -9 -1 -194 -33 -411 -73z"/>
<path d="M10 2067 c0 -372 2 -677 5 -677 2 0 71 16 152 36 81 19 214 50 294
69 226 52 232 54 226 74 -3 14 -661 1157 -673 1170 -2 2 -4 -300 -4 -672z"/>
<path d="M1797 2312 l-28 -29 12 -112 c11 -100 9 -135 -6 -119 -3 3 -13 49
-23 102 -17 97 -18 97 -36 77 -19 -21 -19 -22 2 -95 12 -41 22 -79 22 -85 0
-9 -70 -45 -75 -39 -1 2 -21 36 -45 76 -34 58 -47 72 -66 72 -23 0 -21 -4 31
-80 31 -44 53 -84 50 -90 -4 -6 -39 30 -78 80 -70 88 -73 90 -114 90 l-43 0 0
-43 c0 -43 2 -45 85 -111 77 -61 99 -86 77 -86 -5 0 -41 23 -81 50 -40 28 -74
50 -77 50 -2 0 -4 -9 -4 -20 0 -13 21 -32 70 -61 39 -23 72 -44 74 -48 6 -12
-24 -71 -37 -71 -6 0 -46 9 -87 20 -73 19 -75 19 -94 1 -18 -19 -16 -19 73
-32 50 -7 97 -16 103 -20 29 -18 -9 -21 -114 -11 l-113 12 -30 -30 -30 -30 30
-30 30 -29 105 14 c131 18 130 18 130 1 0 -8 -16 -16 -42 -19 -24 -3 -67 -11
-97 -18 -52 -11 -53 -12 -35 -30 19 -18 21 -18 99 6 43 14 82 21 86 17 15 -17
32 -76 23 -79 -5 -2 -38 -20 -74 -41 -44 -26 -66 -45 -68 -60 -2 -12 -1 -22 3
-22 3 0 39 23 80 50 71 48 95 59 95 43 -1 -5 -41 -39 -90 -78 -88 -69 -90 -71
-90 -112 l0 -43 43 0 c42 0 44 2 112 90 39 49 73 90 78 90 17 0 4 -27 -48
-101 -53 -76 -54 -79 -31 -79 20 0 33 13 67 70 23 39 45 72 49 75 4 3 24 -2
44 -10 32 -13 36 -19 30 -38 -4 -12 -15 -52 -25 -90 -16 -64 -16 -68 1 -77 15
-8 18 0 30 79 7 49 16 95 21 102 18 30 21 -6 9 -117 l-12 -117 29 -29 29 -28
31 32 c34 36 33 18 8 221 -4 37 -3 47 9 47 10 0 17 -21 25 -67 25 -149 21
-137 42 -116 18 17 17 21 -5 101 l-24 84 34 14 c18 8 37 14 41 14 4 0 28 -34
51 -75 36 -62 48 -75 69 -75 24 0 23 3 -31 80 -31 44 -56 84 -56 91 0 24 28
-1 91 -82 61 -79 68 -84 107 -87 l42 -3 0 44 c0 44 -1 46 -82 108 -45 35 -86
67 -91 70 -5 4 -6 12 -3 18 5 7 33 -6 79 -37 102 -68 97 -66 97 -40 0 19 -15
31 -75 63 -41 22 -75 43 -75 46 0 4 7 22 15 42 l14 35 78 -20 c60 -15 82 -17
101 -8 14 6 23 13 20 15 -2 3 -42 12 -89 20 -105 20 -115 23 -103 35 6 6 51 5
122 -2 l113 -12 30 30 29 30 -29 28 -29 28 -88 -11 c-109 -13 -154 -14 -154
-2 0 5 45 17 100 27 98 17 100 18 83 36 -18 18 -21 17 -101 -6 l-83 -24 -14
35 c-8 20 -15 38 -15 42 0 4 34 27 75 51 59 35 75 49 75 68 0 22 -5 20 -79
-32 -76 -54 -101 -66 -101 -47 0 5 40 39 90 77 87 68 89 70 90 112 l0 42 -44
0 c-43 0 -45 -1 -115 -90 -39 -50 -76 -88 -81 -85 -11 7 -10 11 36 75 17 25
39 57 49 73 17 27 17 27 -6 27 -19 0 -33 -15 -67 -74 l-43 -75 -37 16 c-20 8
-38 16 -39 17 -1 1 9 41 22 89 23 84 23 87 5 97 -22 12 -24 8 -41 -102 -8 -54
-16 -78 -26 -78 -14 0 -14 8 7 165 8 59 7 61 -24 93 l-32 32 -27 -28z"/>
<path d="M2692 2211 c-9 -25 -17 -31 -39 -31 l-28 0 24 -19 c21 -16 23 -22 13
-50 l-11 -32 26 20 25 21 29 -21 28 -20 -11 32 c-10 28 -8 34 13 50 l24 19
-28 0 c-22 0 -31 7 -41 31 l-13 31 -11 -31z"/>
<path d="M966 2205 c-5 -19 -13 -25 -34 -25 -27 -1 -27 -1 -6 -18 16 -13 19
-23 13 -45 -8 -31 -3 -34 22 -11 16 14 20 14 43 -1 l26 -17 -6 30 c-5 23 -1
33 17 46 l23 16 -32 0 c-25 0 -33 5 -38 25 -3 14 -10 25 -14 25 -4 0 -11 -11
-14 -25z"/>
<path d="M3516 1994 c-43 -13 -81 -26 -84 -28 -4 -5 147 -214 179 -251 5 -5 9
59 9 148 0 119 -3 157 -12 156 -7 -1 -48 -12 -92 -25z"/>
<path d="M3053 1868 l-113 -31 0 -88 c0 -518 -333 -949 -835 -1080 -78 -21
-113 -24 -260 -24 -127 1 -187 5 -239 18 -38 10 -70 16 -72 14 -3 -3 199 -348
254 -433 17 -28 43 -56 56 -62 21 -9 103 16 577 177 305 104 699 237 876 297
l323 109 0 290 0 290 -81 110 c-44 61 -135 185 -201 278 -105 146 -123 167
-146 166 -15 0 -78 -14 -139 -31z"/>
<path d="M640 1240 c-96 -27 -277 -75 -402 -107 l-228 -58 0 -325 c0 -352 4
-390 56 -492 31 -62 114 -151 170 -184 22 -13 67 -34 100 -46 58 -22 67 -22
648 -26 l589 -3 -18 27 c-35 53 -353 615 -530 937 -115 208 -185 326 -195 325
-8 0 -94 -22 -190 -48z"/>
<path d="M1837 818 c-6 -24 -12 -28 -44 -28 l-36 0 27 -21 c22 -18 26 -26 21
-51 l-7 -30 25 17 c24 15 27 15 52 -1 l26 -17 -11 29 c-10 26 -9 31 17 51 l28
23 -36 0 c-29 0 -37 5 -45 28 l-10 27 -7 -27z"/>
<path d="M3011 221 l-605 -216 370 -3 c219 -1 397 2 439 8 134 20 263 103 335
217 32 50 74 171 68 196 -2 11 -151 -38 -607 -202z"/>
</g>
</svg>
